P3
# feep.ppm
4 4
15
1  1  1    1  12  1    15  15  1   15  1 15
0  0  0    0 15  7    0  0  0    0  0  0
0  0  0    0  0  0    0 15  7    0  0  0
15  0 15    0  0  0    0  0  0    0  0  0
